HIERARCHY
ROOT Hips
{
	OFFSET	0.00	0.00	0.00
	CHANNELS 6 Xposition Yposition Zposition Zrotation Xrotation Yrotation
	JOINT LeftUpLeg
	{
		OFFSET	 0.126116	-0.014019	-0.065224
		CHANNELS 3 Zrotation Xrotation Yrotation
		JOINT LeftLeg
		{
			OFFSET	 0.000000	 0.000000	 0.569914
			CHANNELS 3 Zrotation Xrotation Yrotation
			JOINT LeftFoot
			{
				OFFSET	 0.000000	 0.000000	 0.544423
				CHANNELS 3 Zrotation Xrotation Yrotation
				JOINT LeftToeBase
				{
					OFFSET	 0.000000	 0.000000	 0.207117
					CHANNELS 3 Zrotation Xrotation Yrotation
					End Site
					{
						OFFSET	 0.000000	 0.000000	 0.207117
					}
				}
			}
		}
	}
	JOINT RightUpLeg
	{
		OFFSET	-0.124023	-0.008373	-0.065224
		CHANNELS 3 Zrotation Xrotation Yrotation
		JOINT RightLeg
		{
			OFFSET	 0.000000	 0.000000	 0.570047
			CHANNELS 3 Zrotation Xrotation Yrotation
			JOINT RightFoot
			{
				OFFSET	 0.000000	 0.000000	 0.544354
				CHANNELS 3 Zrotation Xrotation Yrotation
				JOINT RightToeBase
				{
					OFFSET	 0.000000	 0.000000	 0.207540
					CHANNELS 3 Zrotation Xrotation Yrotation
					End Site
					{
						OFFSET	 0.000000	 0.000000	 0.207540
					}
				}
			}
		}
	}
	JOINT Spine
	{
		OFFSET	 0.000184	-0.007763	 0.117403
		CHANNELS 3 Zrotation Xrotation Yrotation
		JOINT Spine1
		{
			OFFSET	 0.000000	 0.000000	 0.137269
			CHANNELS 3 Zrotation Xrotation Yrotation
			JOINT Spine2
			{
				OFFSET	 0.000000	 0.000000	 0.156879
				CHANNELS 3 Zrotation Xrotation Yrotation
				JOINT LeftShoulder
				{
					OFFSET	 0.080501	-0.002496	 0.160144
					CHANNELS 3 Zrotation Xrotation Yrotation
					JOINT LeftArm
					{
						OFFSET	 0.000000	 0.000000	 0.164363
						CHANNELS 3 Zrotation Xrotation Yrotation
						JOINT LeftForeArm
						{
							OFFSET	 0.000000	 0.000000	 0.364576
							CHANNELS 3 Zrotation Xrotation Yrotation
							JOINT LeftHand
							{
								OFFSET	 0.000000	 0.000000	 0.360812
								CHANNELS 3 Zrotation Xrotation Yrotation
								JOINT LeftHandIndex1
								{
									OFFSET	 0.000000	 0.000000	 0.086006
									CHANNELS 3 Zrotation Xrotation Yrotation
									JOINT LeftHandIndex2
									{
										OFFSET	 0.000000	 0.000000	 0.047236
										CHANNELS 3 Zrotation Xrotation Yrotation
										JOINT LeftHandIndex3
										{
											OFFSET	-0.004284	-0.000551	 0.038166
											CHANNELS 3 Zrotation Xrotation Yrotation
											End Site
											{
												OFFSET	-0.004284	-0.000551	 0.038166
											}
										}
									}
								}
							}
						}
					}
				}
				JOINT Neck
				{
					OFFSET	 0.000000	 0.000000	 0.176489
					CHANNELS 3 Zrotation Xrotation Yrotation
					JOINT Head
					{
						OFFSET	 0.000000	-0.001747	 0.077940
						CHANNELS 3 Zrotation Xrotation Yrotation
						End Site
						{
							OFFSET	 0.000000	-0.001747	 0.077940
						}
					}
				}
				JOINT RightShoulder
				{
					OFFSET	-0.080363	 0.000306	 0.159706
					CHANNELS 3 Zrotation Xrotation Yrotation
					JOINT RightArm
					{
						OFFSET	 0.000000	 0.000000	 0.164196
						CHANNELS 3 Zrotation Xrotation Yrotation
						JOINT RightForeArm
						{
							OFFSET	 0.000000	 0.000000	 0.365611
							CHANNELS 3 Zrotation Xrotation Yrotation
							JOINT RightHand
							{
								OFFSET	 0.000000	 0.000000	 0.360648
								CHANNELS 3 Zrotation Xrotation Yrotation
								JOINT RightHandIndex1
								{
									OFFSET	 0.000000	 0.000000	 0.069977
									CHANNELS 3 Zrotation Xrotation Yrotation
									JOINT RightHandIndex2
									{
										OFFSET	 0.000000	 0.000000	 0.052305
										CHANNELS 3 Zrotation Xrotation Yrotation
										JOINT RightHandIndex3
										{
											OFFSET	 0.009002	-0.000782	 0.042196
											CHANNELS 3 Zrotation Xrotation Yrotation
											End Site
											{
												OFFSET	 0.009002	-0.000782	 0.042196
											}
										}
									}
								}
							}
						}
					}
				}
			}
		}
	}
}
MOTION
Frames:    13
Frame Time: 0.03333334
 0.013899	 0.037832	 1.217308	-179.988000	 0.703958	-0.124877	 1.954150	-10.323680	 178.920100	-1.706632	-39.964900	-6.955780	-151.622600	 83.757410	 138.612600	-2.198547	 46.901970	-0.479001	-11.457000	-10.653330	-175.153400	 6.648427	-40.024790	 9.602674	 170.410200	 84.372310	-161.725600	 2.361560	 32.612790	 0.094261	-14.210200	 5.964712	 0.193448	 3.106592	 8.435690	 1.445306	-6.846708	-21.259490	-1.937955	-91.229300	 83.958370	 178.242600	 35.571520	 63.406810	-46.310170	 1.723016	 0.492099	-4.842895	 24.995890	 2.064978	-7.869150	-11.580500	 8.165310	-24.420960	-5.213937	-0.202400	 3.566957	-1.378229	 35.397820	-2.634230	-1.387596	 7.016947	 5.387637	-5.383013	-19.339370	-7.797800	 87.727130	 87.419040	-176.799100	-60.410220	 58.418890	 60.668340	-1.746672	 0.463614	 4.846123	-40.996930	 3.483974	 18.176500	-0.532251	 25.790160	-61.807300	 5.070519	-0.690904	-9.399550	-2.350882	 35.473990	 5.254307
 0.013656	 0.034403	 1.219435	-179.445000	 0.680250	-0.156983	 2.103236	-11.024790	 179.760900	-1.515586	-39.444190	-6.756886	-153.393500	 85.615810	 140.130200	-2.130801	 50.279380	-0.595744	-12.509370	-11.418830	-176.236300	 6.726026	-40.077130	 9.664854	-179.429900	 85.284820	-171.695900	 2.369947	 31.260070	 0.063403	-19.180890	 5.967680	 0.404997	 2.828309	 7.375100	 1.023935	-5.738061	-20.995340	-1.294126	-91.229190	 83.958340	 178.242500	 49.575930	 68.281460	-59.103760	-1.055770	 0.927906	-6.124030	 24.568100	 2.330448	-7.987439	-12.016480	 7.213729	-25.154590	-5.213937	-0.202400	 3.566957	-1.378229	 35.397820	-2.634230	-1.401050	 6.718338	 5.170875	-5.227058	-20.023930	-7.535641	 87.727040	 87.418890	-176.799000	-68.616190	 60.031610	 67.370990	 1.573336	 0.903477	 6.127195	-39.932450	 4.088684	 18.340440	-0.075877	 26.544330	-62.183620	 5.070519	-0.690904	-9.399550	-2.350882	 35.473990	 5.254307
 0.013919	 0.033766	 1.219834	-179.281300	 0.684826	-0.072562	 1.976435	-11.099550	 179.644400	-1.442060	-39.477570	-6.713935	-152.626400	 85.700990	 139.314900	-2.112404	 51.080450	-0.625598	-12.767560	-11.400680	-176.344000	 6.749229	-40.048340	 9.674718	-179.357700	 85.355480	-171.797400	 2.370974	 31.083620	 0.059422	-20.299560	 6.013542	 0.385036	 2.741377	 7.503750	 0.882893	-5.466897	-21.156370	-1.157510	-91.229270	 83.958240	 178.242600	 49.734320	 68.155720	-58.924010	-1.629101	 1.045615	-6.410606	 24.553280	 2.391779	-8.026192	-12.194860	 6.923410	-25.519620	-5.213937	-0.202400	 3.566957	-1.378229	 35.397820	-2.634230	-1.393822	 6.635667	 5.067581	-5.171103	-20.200470	-7.418256	 87.726910	 87.418960	-176.798900	-69.006680	 60.053070	 67.672490	 2.268386	 1.021995	 6.415488	-39.727560	 4.209628	 18.383120	-0.014609	 26.655710	-62.295590	 5.070519	-0.690904	-9.399550	-2.350882	 35.473990	 5.254307
 0.013859	 0.032940	 1.220186	-179.118700	 0.742417	-0.145910	 1.840801	-11.199610	 179.718300	-1.356278	-39.440590	-6.653138	-151.954300	 85.813480	 138.585800	-2.104882	 51.396350	-0.637627	-12.909730	-11.521820	-176.307400	 6.721874	-40.116590	 9.669839	-179.463300	 85.370430	-171.669000	 2.372322	 30.847500	 0.054123	-21.290920	 6.035757	 0.475407	 2.632913	 7.664717	 0.812771	-5.247139	-21.352980	-1.044207	-91.229260	 83.958270	 178.242600	 49.563560	 67.890390	-58.394650	-2.268965	 1.161352	-6.677135	 24.464920	 2.462436	-8.057652	-12.261320	 6.806332	-25.647330	-5.213937	-0.202400	 3.566957	-1.378229	 35.397820	-2.634230	-1.423910	 6.607029	 5.063296	-5.182235	-20.388250	-7.483965	 87.726830	 87.419040	-176.798800	-69.653250	 60.081920	 68.352730	 2.851072	 1.137784	 6.680063	-39.643940	 4.286136	 18.413800	-0.087287	 26.553900	-62.324090	 5.070519	-0.690904	-9.399550	-2.350882	 35.473990	 5.254307
 0.013807	 0.031986	 1.220520	-178.950500	 0.805509	-0.229101	 1.698693	-11.314640	 179.800200	-1.267771	-39.404670	-6.590825	-151.159900	 85.932010	 137.733400	-2.097456	 51.701920	-0.649402	-13.054360	-11.660350	-176.272900	 6.692047	-40.195330	 9.665290	-179.478200	 85.384040	-171.625500	 2.373702	 30.600190	 0.048585	-22.282180	 6.056458	 0.575235	 2.514556	 7.881867	 0.746338	-5.015070	-21.584000	-0.927650	-91.229190	 83.958340	 178.242500	 49.108000	 67.528340	-57.554830	-2.935403	 1.286475	-6.950326	 24.369690	 2.536522	-8.089266	-12.325310	 6.692939	-25.769040	-5.213937	-0.202400	 3.566957	-1.378229	 35.397820	-2.634230	-1.456715	 6.579806	 5.063241	-5.195778	-20.584070	-7.560286	 87.727060	 87.418820	-176.799000	-70.502240	 60.134370	 69.339980	 3.449846	 1.261622	 6.956417	-39.562000	 4.364110	 18.444790	-0.168575	 26.438910	-62.350040	 5.070519	-0.690904	-9.399550	-2.350882	 35.473990	 5.254307
 0.013783	 0.030983	 1.220824	-178.785400	 0.868352	-0.311055	 1.558029	-11.435170	 179.877600	-1.181640	-39.373810	-6.530832	-150.281800	 86.047800	 136.799500	-2.090004	 52.002160	-0.661125	-13.198430	-11.800900	-176.246700	 6.663157	-40.274890	 9.661451	-179.412600	 85.397810	-171.661000	 2.375021	 30.357210	 0.043171	-23.219990	 6.075638	 0.674435	 2.394393	 8.132865	 0.685509	-4.780261	-21.831490	-0.812815	-91.229090	 83.958270	 178.242400	 48.489150	 67.110920	-56.550880	-3.589934	 1.414357	-7.218957	 24.275690	 2.609758	-8.119599	-12.388360	 6.581744	-25.888640	-5.213937	-0.202400	 3.566957	-1.378229	 35.397820	-2.634230	-1.488959	 6.553034	 5.063179	-5.207748	-20.777210	-7.635198	 87.726560	 87.418960	-176.798500	-71.451620	 60.198960	 70.503900	 4.038002	 1.389758	 7.222056	-39.480860	 4.441264	 18.475000	-0.248354	 26.326050	-62.375670	 5.070519	-0.690904	-9.399550	-2.350882	 35.473990	 5.254307
 0.015164	 0.026559	 1.222022	-177.815500	 1.410275	-0.189142	 0.912928	-12.446540	 179.590300	-0.464773	-39.578710	-6.094149	-143.468500	 86.374530	 129.532200	-1.990348	 55.523530	-0.810262	-14.133150	-12.388930	-176.777900	 6.719299	-40.305240	 9.705119	-175.131600	 85.045330	-175.838400	 2.383760	 28.589720	 0.004350	-26.580200	 6.171511	 0.748405	 1.865354	 8.762971	 0.452590	-3.891198	-23.010760	-0.512452	-91.229260	 83.958240	 178.242600	 46.882260	 65.481250	-53.294440	-6.238325	 1.952131	-8.227077	 23.862450	 2.977006	-8.287653	-11.867310	 7.853325	-25.149220	-5.213937	-0.202400	 3.566957	-1.378229	 35.397820	-2.634230	-1.686237	 6.931528	 4.903190	-5.232784	-21.851560	-7.675099	 87.726910	 87.419040	-176.798900	-74.889710	 60.651810	 74.626660	 6.253269	 1.923337	 8.233674	-39.049420	 4.660931	 18.455160	-0.762120	 25.538570	-62.253590	 5.070519	-0.690904	-9.399550	-2.350882	 35.473990	 5.254307
 0.017145	 0.021804	 1.223342	-176.682100	 2.427375	-0.354861	-0.008156	-13.880910	 179.591200	 0.277222	-39.673050	-5.625297	-134.118800	 86.962620	 119.689700	-1.917134	 57.653270	-0.912944	-15.779550	-13.615890	-177.058300	 6.996103	-40.438890	 9.918017	-170.105700	 84.767820	 179.117200	 2.385154	 28.276100	-0.002439	-29.507540	 6.188348	 1.166747	 1.220707	 8.610198	 0.187215	-2.534207	-24.090600	 0.098780	-91.229270	 83.958370	 178.242600	 47.389480	 65.229820	-52.542300	-8.158738	 2.696292	-9.422271	 24.013990	 2.951524	-8.230340	-11.529930	 9.105212	-24.987260	-5.213937	-0.202400	 3.566957	-1.378229	 35.397820	-2.634230	-1.931601	 7.424614	 5.080394	-5.355009	-22.554220	-8.502934	 87.726500	 87.419040	-176.798400	-76.037860	 61.038510	 75.381410	 9.674039	 2.681437	 9.429109	-37.698210	 5.087780	 18.158700	-1.141568	 25.131870	-62.988870	 5.070519	-0.690904	-9.399550	-2.350882	 35.473990	 5.254307
 0.019249	 0.020180	 1.223842	-176.255300	 2.656562	-0.162050	-0.210034	-14.283080	 179.211000	 0.419998	-39.823050	-5.550230	-128.138800	 87.194110	 113.629300	-1.862026	 59.065380	-0.987419	-16.274820	-13.681060	-177.453900	 7.142417	-40.316930	 9.992302	-168.826700	 84.235340	 177.809300	 2.386098	 28.057340	-0.007159	-30.533070	 6.248911	 1.259881	 0.923175	 8.856217	-0.207862	-1.287665	-24.669680	 0.791418	-91.229260	 83.958270	 178.242600	 48.490870	 65.490080	-53.136900	-9.797523	 3.310993	-10.266050	 23.760820	 2.963139	-8.157400	-11.405020	 9.476414	-24.851070	-5.213937	-0.202400	 3.566957	-1.378229	 35.397820	-2.634230	-2.129306	 8.194591	 5.735146	-5.531952	-23.355050	-9.677469	 87.727100	 87.418960	-176.799100	-75.972920	 60.755150	 74.865190	 11.617300	 3.298904	 10.274950	-37.686350	 5.338288	 18.259040	-1.087623	 25.156140	-62.732800	 5.070519	-0.690904	-9.399550	-2.350882	 35.473990	 5.254307
 0.020267	 0.018004	 1.224368	-176.153000	 3.463209	-0.089811	-0.071103	-15.231480	 179.077400	 0.349872	-39.856830	-5.599688	-124.363000	 87.347310	 109.923200	-1.842368	 59.535470	-1.013493	-16.650770	-14.537770	-177.738900	 7.287170	-40.266630	 10.079680	-166.307100	 84.228230	 175.249500	 2.381910	 28.991590	 0.013092	-30.358730	 5.582340	 1.332077	 0.535857	 8.945318	-0.377918	 0.056961	-24.816720	 1.341642	-91.229320	 83.958310	 178.242600	 49.222390	 66.445450	-52.529180	-12.302790	 4.067822	-11.179640	 22.294610	 2.890973	-7.838191	-11.342750	 9.531730	-24.676270	-5.213937	-0.202400	 3.566957	-1.378229	 35.397820	-2.634230	-2.224725	 7.858347	 5.864028	-5.321449	-22.852860	-9.990801	 87.726880	 87.418960	-176.798800	-76.242000	 60.324250	 74.923560	 13.339470	 4.049800	 11.180860	-38.105320	 5.519697	 18.491460	-1.686487	 24.079320	-61.970390	 5.070519	-0.690904	-9.399550	-2.350882	 35.473990	 5.254307
 0.021087	 0.017232	 1.224744	-176.143700	 3.708998	 0.137795	-0.150186	-15.499150	 178.804900	 0.275397	-39.882010	-5.651025	-128.850400	 87.497040	 114.369100	-1.824795	 59.942070	-1.036604	-16.667450	-14.627050	-178.020900	 7.200914	-40.078990	 9.983555	-165.445600	 84.452920	 174.401800	 2.385888	 28.106060	-0.006107	-29.098820	 5.624373	 1.403075	 0.140106	 8.816384	-0.956764	 1.566272	-25.060940	 2.200814	-91.229290	 83.958310	 178.242600	 49.661910	 66.972400	-52.106950	-15.140060	 4.716941	-11.874020	 20.463160	 3.038501	-7.646606	-11.825700	 8.460709	-25.487970	-5.213937	-0.202400	 3.566957	-1.378229	 35.397820	-2.634230	-2.242889	 7.697248	 6.006455	-5.078057	-22.603980	-10.202790	 87.726890	 87.418960	-176.798800	-76.999820	 59.886980	 75.478260	 14.913020	 4.688111	 11.867100	-38.226680	 5.811923	 18.722600	-1.835826	 23.835180	-61.905690	 5.070519	-0.690904	-9.399550	-2.350882	 35.473990	 5.254307
 0.022215	 0.015956	 1.225123	-175.862500	 3.857816	 0.179420	-0.166384	-15.789410	 178.634800	 0.343276	-39.946060	-5.614340	-124.619700	 87.709190	 110.079700	-1.828422	 59.858990	-1.031842	-17.060140	-14.702030	-178.231300	 7.258955	-39.976500	 10.001620	-163.004500	 84.622650	 171.934500	 2.388085	 27.580090	-0.017400	-27.480170	 5.719735	 1.574594	-0.285867	 9.037912	-1.307017	 2.758438	-25.459430	 2.900553	-91.229260	 83.958270	 178.242600	 48.787570	 66.578830	-52.250790	-17.336040	 5.180595	-12.321150	 19.125230	 3.289806	-7.598273	-12.254260	 7.521008	-26.179270	-5.213937	-0.202400	 3.566957	-1.378229	 35.397820	-2.634230	-2.275646	 7.387390	 6.067474	-4.932298	-22.473100	-10.325350	 87.727010	 87.418960	-176.799000	-77.811780	 59.733730	 76.422910	 16.104610	 5.142911	 12.319230	-37.983530	 6.090892	 18.858550	-1.791820	 23.918380	-61.970010	 5.070519	-0.690904	-9.399550	-2.350882	 35.473990	 5.254307
 0.023837	 0.015030	 1.225437	-175.415200	 3.614577	 0.265468	-0.234898	-15.714940	 178.347000	 0.564436	-40.076770	-5.485255	-116.065100	 87.790430	 101.401800	-1.717770	 62.175980	-1.173871	-17.849490	-14.293980	-178.421400	 7.324100	-39.817080	 10.012580	-161.504600	 84.886490	 170.341400	 2.392568	 26.393150	-0.042616	-24.849080	 5.971434	 1.822180	-0.837299	 9.890617	-1.807780	 4.269353	-26.084530	 3.855381	-91.229350	 83.958310	 178.242700	 47.267370	 65.519770	-52.898960	-19.231360	 5.676216	-12.771910	 18.358550	 3.674186	-7.688660	-12.308140	 6.724995	-25.737710	-5.213937	-0.202400	 3.566957	-1.378229	 35.397820	-2.634230	-2.301227	 7.052967	 6.153528	-4.874093	-22.425500	-10.847690	 87.726970	 87.418960	-176.798900	-78.815350	 59.631320	 77.846710	 17.304340	 5.632556	 12.774320	-37.617800	 6.370843	 18.956220	-1.541722	 24.284230	-61.904400	 5.070519	-0.690904	-9.399550	-2.350882	 35.473990	 5.254307
